<svg width="503" height="504" viewBox="0 0 503 504" fill="none" xmlns="http://www.w3.org/2000/svg">
<path d="M258.999 65.0071C305.686 67.0043 350.049 86.4284 383.228 119.608C418.298 154.677 438 202.241 438 251.836C438 301.432 418.298 348.996 383.228 384.066C350.049 417.245 305.686 436.668 258.999 438.665C254.585 438.854 251 435.254 251 430.836V352.73C251 347.6 255.769 343.81 260.866 344.394C264.355 344.794 267.904 345 271.5 345C322.586 345 364 303.586 364 252.5C364 201.414 322.586 160 271.5 160C267.904 160 264.355 160.206 260.866 160.605C255.769 161.189 251 157.399 251 152.268V72.8362C251 68.418 254.585 64.8183 258.999 65.0071Z" fill="#091FFC"/>
<path d="M180.704 297.908C184.736 295.281 190.137 296.801 192.658 300.899C203.178 317.999 219.105 331.416 238.057 338.768C241.571 340.131 243.922 343.571 243.593 347.326L236.367 429.758C235.981 434.159 232.097 437.432 227.716 436.859C202.31 433.531 177.828 425.014 155.806 411.804C133.784 398.594 114.744 381.004 99.8476 360.156C97.2792 356.561 98.3378 351.593 102.039 349.181L180.704 297.908Z" fill="#091FFC"/>
<path d="M71.0703 204.183C72.1869 199.908 76.6811 197.541 80.9043 198.839L174.532 227.623C178.601 228.875 180.94 233.09 180.245 237.291C179.426 242.239 179 247.32 179 252.5C179 262.038 180.444 271.238 183.125 279.895C184.333 283.795 182.78 288.106 179.173 290.017L93.8203 335.23C89.9159 337.298 85.0574 335.816 83.1582 331.826C73.7673 312.101 67.8966 290.864 65.833 269.074C63.7694 247.283 65.549 225.32 71.0703 204.183Z" fill="#091FFC"/>
<path d="M148.937 95.4075C152.624 92.9726 157.55 94.2129 159.825 98.0003L207.287 177.01C209.284 180.334 208.581 184.586 205.85 187.338C197.948 195.298 191.484 204.688 186.88 215.085C185.001 219.328 180.133 221.572 175.848 219.791L86.709 182.743C82.6291 181.048 80.6803 176.356 82.5488 172.353C97.1496 141.069 120.131 114.434 148.937 95.4075Z" fill="#091FFC"/>
<path d="M227.308 66.0794C231.687 65.4961 235.578 68.761 235.974 73.1614L243.568 157.663C243.906 161.423 241.554 164.873 238.035 166.239C233.255 168.094 228.668 170.336 224.312 172.925C220.003 175.485 214.255 174.11 212.057 169.606L173.487 90.5813C171.549 86.6109 173.191 81.8039 177.24 80.0374C193.198 73.0771 210.05 68.3784 227.308 66.0794Z" fill="#091FFC"/>
</svg>
